<?xml version="1.0" standalone="no"?><!DOCTYPE svg PUBLIC "-//W3C//DTD SVG 1.1//EN" "http://www.w3.org/Graphics/SVG/1.1/DTD/svg11.dtd"><svg t="1759321090545" class="icon" viewBox="0 0 1024 1024" version="1.1" xmlns="http://www.w3.org/2000/svg" p-id="4864" xmlns:xlink="http://www.w3.org/1999/xlink" width="200" height="200"><path d="M184.41 242h651.87a30.46 30.46 0 0 1 30.46 30.46V671H153.95V272.46A30.46 30.46 0 0 1 184.41 242z" fill="#454545" p-id="4865"></path><path d="M837 761H183.69a29.85 29.85 0 0 1-29.85-29.85V671h713v60.15A29.85 29.85 0 0 1 837 761z" fill="#E0E0E0" p-id="4866"></path><path d="M184.09 273H836.6v360.57H184.09z" fill="#636363" p-id="4867"></path><path d="M184.09 273.44H836.6v37.74H184.09z" fill="#E5E5E5" p-id="4868"></path><path d="M207 293m-8 0a8 8 0 1 0 16 0 8 8 0 1 0-16 0Z" fill="#FF6259" p-id="4869"></path><path d="M231 293m-8 0a8 8 0 1 0 16 0 8 8 0 1 0-16 0Z" fill="#FEBD30" p-id="4870"></path><path d="M255 293m-8 0a8 8 0 1 0 16 0 8 8 0 1 0-16 0Z" fill="#29CB42" p-id="4871"></path><path d="M604.44 825H416.25l26.5-64h135.18l26.51 64z" fill="#B2B2B2" p-id="4872"></path><path d="M384.75 822m11.5 0l228.2 0q11.5 0 11.5 11.5l0 0q0 11.5-11.5 11.5l-228.2 0q-11.5 0-11.5-11.5l0 0q0-11.5 11.5-11.5Z" fill="#E0E0E0" p-id="4873"></path><path d="M510.34 716m-22 0a22 22 0 1 0 44 0 22 22 0 1 0-44 0Z" fill="#B2B2B2" p-id="4874"></path><path d="M199 336m15 0l102 0q15 0 15 15l0 0q0 15-15 15l-102 0q-15 0-15-15l0 0q0-15 15-15Z" fill="#FEBD30" p-id="4875"></path><path d="M199 391m15 0l102 0q15 0 15 15l0 0q0 15-15 15l-102 0q-15 0-15-15l0 0q0-15 15-15Z" fill="#4DA6FF" p-id="4876"></path><path d="M199 446m15 0l102 0q15 0 15 15l0 0q0 15-15 15l-102 0q-15 0-15-15l0 0q0-15 15-15Z" fill="#FF6259" p-id="4877"></path><path d="M343 336m15 0l36 0q15 0 15 15l0 0q0 15-15 15l-36 0q-15 0-15-15l0 0q0-15 15-15Z" fill="#FF6259" p-id="4878"></path><path d="M343 446m15 0l36 0q15 0 15 15l0 0q0 15-15 15l-36 0q-15 0-15-15l0 0q0-15 15-15Z" fill="#E0E0E0" p-id="4879"></path><path d="M199 558m15 0l102 0q15 0 15 15l0 0q0 15-15 15l-102 0q-15 0-15-15l0 0q0-15 15-15Z" fill="#FF6259" p-id="4880"></path><path d="M343 558m15 0l36 0q15 0 15 15l0 0q0 15-15 15l-36 0q-15 0-15-15l0 0q0-15 15-15Z" fill="#E0E0E0" p-id="4881"></path><path d="M343 391m15 0l102 0q15 0 15 15l0 0q0 15-15 15l-102 0q-15 0-15-15l0 0q0-15 15-15Z" fill="#FEBD30" p-id="4882"></path><path d="M422 558m15 0l102 0q15 0 15 15l0 0q0 15-15 15l-102 0q-15 0-15-15l0 0q0-15 15-15Z" fill="#FEBD30" p-id="4883"></path><path d="M356 502m15 0l102 0q15 0 15 15l0 0q0 15-15 15l-102 0q-15 0-15-15l0 0q0-15 15-15Z" fill="#4DA6FF" p-id="4884"></path><path d="M487 391m15 0l36 0q15 0 15 15l0 0q0 15-15 15l-36 0q-15 0-15-15l0 0q0-15 15-15Z" fill="#E0E0E0" p-id="4885"></path><path d="M199 502m15 0l36 0q15 0 15 15l0 0q0 15-15 15l-36 0q-15 0-15-15l0 0q0-15 15-15Z" fill="#E0E0E0" p-id="4886"></path><path d="M277 502m15 0l36 0q15 0 15 15l0 0q0 15-15 15l-36 0q-15 0-15-15l0 0q0-15 15-15Z" fill="#FEBD30" p-id="4887"></path><path d="M557 170.92m101.65 0l144.7 0q101.65 0 101.65 101.65l0 0q0 101.65-101.65 101.65l-144.7 0q-101.65 0-101.65-101.65l0 0q0-101.65 101.65-101.65Z" fill="#4DA6FF" p-id="4888"></path><path d="M642.37 272.57l28.29-28.29A8 8 0 0 0 659.34 233l-33.23 33.2a9.92 9.92 0 0 0 0 12.73l33.23 33.23a8 8 0 0 0 11.32-11.31zM816.4 272.57l-28.29 28.28a8 8 0 0 0 11.32 11.31l33.23-33.23a9.92 9.92 0 0 0 0-12.73L799.43 233a8 8 0 1 0-11.32 11.31z" fill="#FFFFFF" p-id="4889"></path><path d="M712.860899 317.201314m-6.928203-4l0 0q-6.928203-4-2.928203-10.928203l38.91-67.394097q4-6.928203 10.928203-2.928204l0 0q6.928203 4 2.928203 10.928204l-38.91 67.394097q-4 6.928203-10.928203 2.928203Z" fill="#FFFFFF" p-id="4890"></path></svg>